<svg width="51" height="50" viewBox="0 0 51 50" fill="none" xmlns="http://www.w3.org/2000/svg">
<g clip-path="url(#clip0_205_1973)">
<path d="M40.3755 14.4565C40.3755 6.50023 33.9022 0.0273438 25.9463 0.0273438C17.99 0.0273438 11.5171 6.50023 11.5171 14.4565C11.5171 19.3847 14.0012 23.7431 17.7819 26.3472C14.2519 27.5654 11.016 29.5777 8.2976 32.2961C3.58364 37.0101 0.987549 43.278 0.987549 49.9444H4.88721C4.88721 38.3327 14.3342 28.8857 25.9463 28.8857C33.9022 28.8857 40.3755 22.4129 40.3755 14.4565ZM25.9463 24.9861C20.1402 24.9861 15.4167 20.2626 15.4167 14.4565C15.4167 8.65049 20.1402 3.927 25.9463 3.927C31.752 3.927 36.4754 8.65049 36.4754 14.4565C36.4754 20.2626 31.752 24.9861 25.9463 24.9861Z" fill="#202225"/>
<path d="M41.7544 45.0837L50.9327 35.9054L41.7544 26.7271L38.9967 29.4843L43.37 33.8576H40.1829C33.3618 33.8576 27.8076 39.4072 27.8019 46.2284L27.7988 49.9429L31.6985 49.9459L31.7019 46.2318C31.7057 41.5594 35.5105 37.7577 40.1829 37.7577H43.5651L38.9967 42.3261L41.7544 45.0837Z" fill="#FFCA27"/>
</g>
<defs>
<clipPath id="clip0_205_1973">
<rect width="49.9449" height="49.9449" fill="white" transform="translate(0.987549 0.0273438)"/>
</clipPath>
</defs>
</svg>
