<svg width="52" height="48" viewBox="0 0 52 48" fill="none" xmlns="http://www.w3.org/2000/svg">
<path d="M47.8507 25.2079H37.2072V15.1993C37.2072 13.7085 35.9987 12.5001 34.508 12.5001H33.1576H20.5288V8.97137C20.5288 5.84662 23.0692 3.30622 26.194 3.30622C29.3187 3.30622 31.8591 5.84662 31.8591 8.97137C31.8591 9.68618 32.4427 10.2698 33.1576 10.2698C33.8724 10.2698 34.456 9.68618 34.456 8.97137C34.456 4.41699 30.7483 0.709301 26.194 0.709301C21.6396 0.709301 17.9319 4.41699 17.9319 8.97137V12.5001H17.8799C16.3892 12.5001 15.1807 13.7085 15.1807 15.1993V25.2079H4.53723C2.42109 25.2079 0.709301 26.9308 0.709301 29.0358V43.084C0.709301 45.189 2.42109 46.9119 4.53723 46.9119H47.8507C49.9557 46.9119 51.6786 45.2001 51.6786 43.084V29.0358C51.6786 26.9308 49.9668 25.2079 47.8507 25.2079ZM17.7776 15.1993C17.7776 15.143 17.824 15.097 17.8799 15.097H19.2303H33.1576H34.508C34.5643 15.097 34.6103 15.1434 34.6103 15.1993V26.9901C34.6103 27.0464 34.5639 27.0924 34.508 27.0924H17.8799C17.8236 27.0924 17.7776 27.046 17.7776 26.9901V15.1993ZM49.0817 43.084C49.0817 43.7599 48.5266 44.315 47.8507 44.315H4.53723C3.86134 44.315 3.30622 43.7599 3.30622 43.084V29.0358C3.30622 28.3599 3.86134 27.8048 4.53723 27.8048H15.3096C15.6566 28.8965 16.6732 29.6893 17.8799 29.6893H34.508C35.7147 29.6893 36.7313 28.8965 37.0783 27.8048H47.8507C48.5266 27.8048 49.0817 28.3599 49.0817 29.0358V43.084Z" fill="#202225" stroke="#202225" stroke-width="0.581399"/>
<path d="M15.7135 35.0521H13.6476L14.6755 33.2684C14.9576 32.7846 14.7863 32.1699 14.3026 31.8877C13.8189 31.6056 13.2041 31.7769 12.922 32.2606L11.8941 34.0443L10.8661 32.2606C10.584 31.7769 9.96924 31.6156 9.48551 31.8877C9.00179 32.1598 8.84055 32.7846 9.11264 33.2684L10.1406 35.0521H8.07465C7.52039 35.0521 7.06689 35.5056 7.06689 36.0599C7.06689 36.6141 7.52039 37.0676 8.07465 37.0676H10.1406L9.11264 38.8513C8.83047 39.3351 9.00179 39.9498 9.48551 40.232C9.64675 40.3227 9.81807 40.363 9.98939 40.363C10.3421 40.363 10.6747 40.1816 10.8661 39.8591L11.8941 38.0754L12.922 39.8591C13.1134 40.1816 13.446 40.363 13.7987 40.363C13.97 40.363 14.1414 40.3227 14.3026 40.232C14.7863 39.9498 14.9476 39.3351 14.6755 38.8513L13.6476 37.0676H15.7135C16.2677 37.0676 16.7212 36.6141 16.7212 36.0599C16.7212 35.5056 16.2677 35.0521 15.7135 35.0521Z" fill="#FFCA27"/>
<path d="M30.0034 35.0521H27.9375L28.9654 33.2684C29.2476 32.7846 29.0763 32.1699 28.5926 31.8877C28.1088 31.6056 27.4941 31.7769 27.2119 32.2606L26.1941 34.0443L25.1662 32.2606C24.884 31.7769 24.2693 31.6156 23.7856 31.8877C23.3018 32.1699 23.1406 32.7846 23.4127 33.2684L24.4406 35.0521H22.3747C21.8204 35.0521 21.3669 35.5056 21.3669 36.0599C21.3669 36.6141 21.8204 37.0676 22.3747 37.0676H24.4406L23.4127 38.8513C23.1305 39.3351 23.3018 39.9498 23.7856 40.232C23.9468 40.3227 24.1181 40.363 24.2894 40.363C24.6422 40.363 24.9747 40.1816 25.1662 39.8591L26.1941 38.0754L27.222 39.8591C27.4135 40.1816 27.7461 40.363 28.0988 40.363C28.2701 40.363 28.4414 40.3227 28.6026 40.232C29.0864 39.9498 29.2476 39.3351 28.9755 38.8513L27.9476 37.0676H30.0135C30.5678 37.0676 31.0213 36.6141 31.0213 36.0599C31.0213 35.5056 30.5577 35.0521 30.0034 35.0521Z" fill="#FFCA27"/>
<path d="M44.2934 35.0521H42.2275L43.2554 33.2684C43.5376 32.7846 43.3663 32.1699 42.8825 31.8877C42.3988 31.6056 41.7841 31.7769 41.5019 32.2606L40.474 34.0443L39.4461 32.2606C39.1639 31.7769 38.5492 31.6156 38.0655 31.8877C37.5817 32.1699 37.4205 32.7846 37.6926 33.2684L38.7205 35.0521H36.6748C36.1205 35.0521 35.667 35.5056 35.667 36.0599C35.667 36.6141 36.1205 37.0676 36.6748 37.0676H38.7407L37.7127 38.8513C37.4306 39.3351 37.6019 39.9498 38.0856 40.232C38.2469 40.3227 38.4182 40.363 38.5895 40.363C38.9422 40.363 39.2748 40.1816 39.4662 39.8591L40.4942 38.0754L41.5221 39.8591C41.7135 40.1816 42.0461 40.363 42.3988 40.363C42.5701 40.363 42.7415 40.3227 42.9027 40.232C43.3864 39.9498 43.5477 39.3351 43.2756 38.8513L42.2477 37.0676H44.3136C44.8678 37.0676 45.3213 36.6141 45.3213 36.0599C45.3213 35.5056 44.8477 35.0521 44.2934 35.0521Z" fill="#FFCA27"/>
</svg>
