<svg width="19" height="19" viewBox="0 0 19 19" fill="none" xmlns="http://www.w3.org/2000/svg">
<path d="M17.3701 13.6709L14.8395 11.9028C14.5086 11.672 14.1217 11.5503 13.7206 11.5503C13.0828 11.5503 12.4841 11.8631 12.1194 12.3865L11.5319 13.2284C10.5474 12.5681 9.44874 11.6461 8.40141 10.599C7.35428 9.55182 6.43246 8.45319 5.77232 7.46861L6.61384 6.88115C7.04281 6.58246 7.32929 6.13499 7.42027 5.62154C7.51106 5.10846 7.39662 4.59004 7.09755 4.16089L5.32982 1.63022C4.96017 1.1015 4.36375 0.785645 3.73413 0.785645C3.51593 0.785645 3.30192 0.824173 3.09822 0.899323C2.86686 0.984772 2.65133 1.08968 2.43999 1.22243L2.09057 1.46848C2.00321 1.53638 1.92196 1.61076 1.84414 1.68858C1.41785 2.11469 1.11534 2.65408 0.944633 3.2919C0.216216 6.02246 2.02076 10.1515 5.43491 13.5656C8.30204 16.4328 11.7465 18.2139 14.4239 18.2142C14.8824 18.2142 15.3148 18.1608 15.7088 18.0555C16.3467 17.885 16.8861 17.5825 17.3125 17.156C17.39 17.0786 17.464 16.9973 17.5433 16.8947L17.7896 16.5434C17.9099 16.3511 18.0146 16.1356 18.1012 15.9025C18.399 15.0976 18.0984 14.1798 17.3701 13.6709Z" fill="#202225"/>
</svg>
