<svg width="39" height="39" viewBox="0 0 39 39" fill="none" xmlns="http://www.w3.org/2000/svg">
<path d="M35.0337 14.6726C34.7024 14.4196 34.4436 14.0837 34.2834 13.6989C34.1232 13.314 34.0671 12.8937 34.1209 12.4803C34.5603 9.04277 34.285 7.03681 33.2235 5.97613C32.1603 4.9146 30.1551 4.63597 26.7193 5.08041C26.3056 5.13261 25.8855 5.07557 25.5007 4.91497C25.116 4.75437 24.7799 4.49582 24.5261 4.16504C22.5518 1.63856 21.0356 0.51123 19.6099 0.51123C18.186 0.51123 16.6698 1.63687 14.6955 4.16248C14.4407 4.49219 14.1046 4.7499 13.72 4.91025C13.3355 5.0706 12.9158 5.12807 12.5023 5.077C8.10065 4.50691 6.71262 5.25563 5.99811 5.97101C4.93828 7.03 4.66307 9.03597 5.10239 12.4761C5.15602 12.8896 5.09991 13.3099 4.93969 13.6949C4.77946 14.0798 4.52077 14.4159 4.18958 14.6692C1.66481 16.6402 0.53833 18.1555 0.53833 19.5828C0.53833 21.011 1.66481 22.5273 4.19299 24.4999C4.52428 24.7529 4.78307 25.0888 4.94331 25.4737C5.10355 25.8585 5.15959 26.2788 5.1058 26.6922C4.66645 30.1298 4.9417 32.1357 6.00323 33.1964C7.06475 34.2562 9.0682 34.5348 12.5074 34.0921C12.9211 34.0407 13.3409 34.0981 13.7256 34.2586C14.1102 34.4192 14.4463 34.6773 14.7006 35.0076C16.6749 37.534 18.1912 38.6614 19.6168 38.6614C21.0407 38.6614 22.5569 37.5357 24.5313 35.0101C24.7854 34.6797 25.1215 34.4215 25.5062 34.2611C25.8909 34.1007 26.3108 34.0436 26.7244 34.0956C31.1244 34.6631 32.5124 33.9171 33.2286 33.2016C34.2884 32.1426 34.5637 30.1366 34.1243 26.6965C34.0707 26.283 34.1268 25.8627 34.287 25.4777C34.4473 25.0928 34.706 24.7567 35.0371 24.5034C37.5619 22.5324 38.6884 21.0171 38.6884 19.5898C38.6884 18.1614 37.5619 16.6453 35.0337 14.6726Z" fill="#F6F6F6"/>
<path d="M16.1468 25.0647L12.9727 21.8901C12.5582 21.4755 12.3254 20.9133 12.3254 20.3271C12.3255 19.7409 12.5583 19.1788 12.9728 18.7643C13.3873 18.3498 13.9498 18.1166 14.536 18.1165C15.1221 18.1165 15.6843 18.3492 16.0988 18.7636L17.6261 20.2904L23.1148 14.1913C23.309 13.9755 23.5437 13.8001 23.8057 13.675C24.0677 13.55 24.3518 13.4778 24.6416 13.4625C24.9315 13.4473 25.2216 13.4893 25.4953 13.5861C25.7689 13.683 26.0208 13.8328 26.2366 14.027C26.6722 14.4191 26.9343 14.9683 26.9651 15.5536C26.9959 16.139 26.793 16.7126 26.4009 17.1483L19.3533 24.9804C19.1526 25.2035 18.9085 25.3834 18.636 25.5091C18.3635 25.6348 18.0682 25.7036 17.7682 25.7115C17.4682 25.7194 17.1697 25.6661 16.891 25.5549C16.6122 25.4437 16.359 25.2769 16.1468 25.0647Z" fill="#202225"/>
</svg>
